<svg id="Layer_1" data-name="Layer 1" xmlns="http://www.w3.org/2000/svg" viewBox="0 0 65 65"><defs><style>.cls-1{fill:none;stroke:#fff;stroke-miterlimit:10;opacity:0.5;}.cls-2{opacity:0.8;}.cls-3{fill:#fff;}</style></defs><circle class="cls-1" cx="32.5" cy="32.5" r="32"/><g class="cls-2"><path class="cls-3" d="M39.78,17H25.9a8.55,8.55,0,0,0-8.54,8.54V39.41A8.56,8.56,0,0,0,25.9,48H39.78a8.56,8.56,0,0,0,8.54-8.55V25.54A8.55,8.55,0,0,0,39.78,17Zm5.79,22.41a5.8,5.8,0,0,1-5.79,5.8H25.9a5.8,5.8,0,0,1-5.79-5.8V25.54a5.8,5.8,0,0,1,5.79-5.79H39.78a5.8,5.8,0,0,1,5.79,5.79V39.41Z"/><path class="cls-3" d="M32.84,24.5a8,8,0,1,0,8,8A8,8,0,0,0,32.84,24.5Zm0,13.21a5.23,5.23,0,1,1,5.23-5.23A5.24,5.24,0,0,1,32.84,37.71Z"/><path class="cls-3" d="M41.15,22.17a2,2,0,0,0-2,2,2,2,0,0,0,2,2,2,2,0,0,0,2-2,2,2,0,0,0-2-2Z"/></g></svg>