<svg id="Layer_1" data-name="Layer 1" xmlns="http://www.w3.org/2000/svg" viewBox="0 0 65 65"><defs><style>.cls-1{fill:none;stroke:#fff;stroke-miterlimit:10;opacity:0.5;}.cls-2{fill:#fff;opacity:0.8;}</style></defs><circle class="cls-1" cx="32.5" cy="32.5" r="32"/><path class="cls-2" d="M21.61,24.24h0a3.25,3.25,0,0,0,3.4-3.37,3.25,3.25,0,0,0-3.36-3.38,3.25,3.25,0,0,0-3.39,3.38A3.22,3.22,0,0,0,21.61,24.24ZM18.3,26.49h6.75V46H18.3Zm30,7.13a7.12,7.12,0,0,0-12.75-4.36V26.49H28.8V46h6.75V34.74h0a3,3,0,1,1,6,0V46H48.3Z"/></svg>